<?xml version="1.0" encoding="utf-8"?>
<!-- Generator: Adobe Illustrator 22.0.0, SVG Export Plug-In . SVG Version: 6.00 Build 0)  -->
<svg version="1.1" id="Camada_1" xmlns="http://www.w3.org/2000/svg" xmlns:xlink="http://www.w3.org/1999/xlink" x="0px" y="0px"
	 viewBox="0 0 1077 484" style="enable-background:new 0 0 1077 484;" xml:space="preserve">
<style type="text/css">
	.st0{clip-path:url(#SVGID_2_);}
	.st1{fill:#050505;}
	.st2{fill:#F0CB46;}
	.st3{fill:#E2D105;}
	.st4{fill:#FFF200;}
	.st5{stroke:#FFFFFF;stroke-miterlimit:10;}
	.st6{fill:#FFFFFF;}
</style>
<g>
	<defs>
		<rect id="SVGID_1_" width="1077" height="484"/>
	</defs>
	<clipPath id="SVGID_2_">
		<use xlink:href="#SVGID_1_"  style="overflow:visible;"/>
	</clipPath>
	<g class="st0">
		<g>
			<g>
				<g>
					<g>
						<path class="st1" d="M387.6,247c-0.1-0.4-0.2-0.8-0.3-1.3c-0.3-1.3-0.4-2.7-0.5-4.1c0-0.4,0-0.8-0.1-1.3l-9.8-100.1
							c-0.2-2.2-0.8-4-1.7-5.9h-0.5v-0.8c0-1-0.7-1.9-1.2-2.8c0,0,0.1,0,0.1,0c-0.2-0.4-0.4-0.7-0.7-1.1c-0.1-0.1-0.1-0.3-0.2-0.4
							c-0.2-0.3-0.5-0.7-0.7-1c-0.1-0.1-0.2-0.3-0.3-0.4c-0.3-0.3-0.5-0.6-0.8-0.9c-0.1-0.1-0.2-0.2-0.3-0.3c-0.5-0.5-1.1-1-1.6-1.5
							c-0.2-0.2-0.4-0.3-0.6-0.5c-0.3-0.2-0.5-0.4-0.8-0.6c-0.2-0.2-0.5-0.3-0.7-0.5c-0.3-0.2-0.5-0.3-0.8-0.5
							c-0.3-0.2-0.6-0.3-0.9-0.5c-0.2-0.1-0.5-0.3-0.7-0.4c-0.4-0.2-0.9-0.4-1.3-0.6c-0.2-0.1-0.3-0.1-0.5-0.2
							c-0.5-0.2-1-0.4-1.5-0.5c-0.2-0.1-0.4-0.1-0.6-0.2c-0.4-0.1-0.8-0.2-1.2-0.3c-0.2,0-0.4-0.1-0.7-0.1c-0.4-0.1-0.8-0.1-1.3-0.2
							c-0.2,0-0.4-0.1-0.6-0.1c-0.6-0.1-1.2-0.1-1.9-0.1l0,0c-22.8,0-39.2,18.6-37,41.3l3.4,30.2v1.4l0,0l-3.1-1.9l-51.9-36.6
							c-10.9-7.9-25.3-7.2-36,0.1h0h0c-0.8,0-1.5-0.1-2.3,0.5c0,0-0.1-0.5-0.1-0.5c-0.7,0.5-1.4,0.8-2,1.4c-0.2,0.2-0.4,0.2-0.5,0.4
							c-0.5,0.5-1,0.9-1.5,1.4c-0.7,0.7-1.3,1.5-1.9,2.3l-87.5,118.7c-9.2,12.5-8,29.7,2.8,40.8l34.3,35.3
							c23.5,26.6,56.9,53,93.8,55.2c1,0.1,2.1,0.1,3.1,0.1c0.4,0,0.7,0,1.1,0c0.7,0,1.4,0,2.1,0c0.4,0,0.8,0,1.3,0
							c0.6,0,1.2,0,1.8-0.1c0.4,0,0.9-0.1,1.3-0.1c0.6,0,1.2-0.1,1.7-0.1c0.5,0,0.9-0.1,1.4-0.1c0.6-0.1,1.1-0.1,1.7-0.2
							c0.5-0.1,1-0.1,1.4-0.2c0.5-0.1,1.1-0.1,1.6-0.2c0.5-0.1,1-0.2,1.5-0.2c0.5-0.1,1-0.2,1.5-0.3c0.5-0.1,1-0.2,1.5-0.3
							c0.5-0.1,1-0.2,1.5-0.3c0.5-0.1,1-0.2,1.5-0.3c0.5-0.1,1-0.2,1.5-0.4c0.5-0.1,1-0.3,1.5-0.4c0.5-0.1,0.9-0.3,1.4-0.4
							c0.5-0.1,1-0.3,1.6-0.5c0.5-0.1,0.9-0.3,1.4-0.4c0.5-0.2,1-0.3,1.6-0.5c0.4-0.1,0.9-0.3,1.3-0.5c0.5-0.2,1.1-0.4,1.6-0.6
							c0.4-0.2,0.8-0.3,1.3-0.5c0.5-0.2,1.1-0.4,1.6-0.6c0.4-0.2,0.8-0.3,1.2-0.5c0.6-0.2,1.1-0.5,1.7-0.7c0.4-0.2,0.7-0.3,1.1-0.5
							c0.6-0.3,1.1-0.5,1.7-0.8c0.3-0.2,0.7-0.3,1-0.5c0.6-0.3,1.2-0.6,1.8-0.9c0.3-0.2,0.6-0.3,0.9-0.5c0.6-0.3,1.2-0.6,1.8-0.9
							c0.3-0.1,0.5-0.3,0.8-0.4c0.6-0.3,1.3-0.7,1.9-1c0.2-0.1,0.4-0.3,0.7-0.4c0.7-0.4,1.4-0.8,2-1.2c0.1-0.1,0.3-0.2,0.4-0.3
							c0.7-0.4,1.5-0.9,2.2-1.4c0,0,0.1-0.1,0.1-0.1c10.5-6.6,20-14.8,28.1-23.7c19.2-21,34.7-46.2,37.9-74.9
							C393.3,279,392,262.4,387.6,247z"/>
					</g>
					<g>
						<path class="st2" d="M359.7,361.8c-8.2,8.9-17.7,17.1-28.1,23.7c0,0-0.1,0.1-0.1,0.1c-0.7,0.5-1.5,0.9-2.2,1.4
							c-0.1,0.1-0.3,0.2-0.4,0.3c-0.7,0.4-1.3,0.8-2,1.2c-0.2,0.1-0.4,0.3-0.7,0.4c-0.6,0.4-1.3,0.7-1.9,1c-0.3,0.1-0.5,0.3-0.8,0.4
							c-0.6,0.3-1.2,0.6-1.8,0.9c-0.3,0.2-0.6,0.3-0.9,0.5c-0.6,0.3-1.2,0.6-1.8,0.9c-0.3,0.2-0.7,0.3-1,0.5
							c-0.6,0.3-1.1,0.5-1.7,0.8c-0.4,0.2-0.7,0.3-1.1,0.5c-0.6,0.2-1.1,0.5-1.7,0.7c-0.4,0.2-0.8,0.3-1.2,0.5
							c-0.5,0.2-1.1,0.4-1.6,0.6c-0.4,0.2-0.8,0.3-1.3,0.5c-0.5,0.2-1.1,0.4-1.6,0.6c-0.4,0.2-0.9,0.3-1.3,0.5
							c-0.5,0.2-1,0.3-1.6,0.5c-0.5,0.1-0.9,0.3-1.4,0.4c-0.5,0.2-1,0.3-1.6,0.5c-0.5,0.1-0.9,0.3-1.4,0.4c-0.5,0.1-1,0.3-1.5,0.4
							c-0.5,0.1-1,0.2-1.5,0.4c-0.5,0.1-1,0.2-1.5,0.3c-0.5,0.1-1,0.2-1.5,0.3c-0.5,0.1-1,0.2-1.5,0.3c-0.5,0.1-1,0.2-1.5,0.3
							c-0.5,0.1-1,0.2-1.5,0.2c-0.5,0.1-1.1,0.2-1.6,0.2c-0.5,0.1-1,0.1-1.4,0.2c-0.6,0.1-1.1,0.1-1.7,0.2c-0.5,0-0.9,0.1-1.4,0.1
							c-0.6,0-1.2,0.1-1.7,0.1c-0.4,0-0.9,0.1-1.3,0.1c-0.6,0-1.2,0-1.8,0.1c-0.4,0-0.8,0-1.3,0c-0.7,0-1.4,0-2.1,0
							c-0.4,0-0.7,0-1.1,0c-1,0-2.1-0.1-3.1-0.1c-36.9-2.2-70.2-28.6-93.8-55.2l-34.3-35.3c-10.8-11.1-12-28.4-2.8-40.8l83.9-113.9
							c-0.2,0.2-0.4,0.4-0.6,0.7c-0.7,0.7-1.3,1.5-1.9,2.3l-87.5,118.7c-9.2,12.5-8,29.7,2.8,40.8l34.3,35.3
							c23.5,26.6,56.9,53,93.8,55.2c1,0.1,2.1,0.1,3.1,0.1c0.4,0,0.7,0,1.1,0c0.7,0,1.4,0,2.1,0c0.4,0,0.8,0,1.3,0
							c0.6,0,1.2,0,1.8-0.1c0.4,0,0.9-0.1,1.3-0.1c0.6,0,1.2-0.1,1.7-0.1c0.5,0,0.9-0.1,1.4-0.1c0.6-0.1,1.1-0.1,1.7-0.2
							c0.5-0.1,1-0.1,1.4-0.2c0.5-0.1,1.1-0.1,1.6-0.2c0.5-0.1,1-0.2,1.5-0.2c0.5-0.1,1-0.2,1.5-0.3c0.5-0.1,1-0.2,1.5-0.3
							c0.5-0.1,1-0.2,1.5-0.3c0.5-0.1,1-0.2,1.5-0.3c0.5-0.1,1-0.2,1.5-0.4c0.5-0.1,1-0.3,1.5-0.4c0.5-0.1,0.9-0.3,1.4-0.4
							c0.5-0.1,1-0.3,1.6-0.5c0.5-0.1,0.9-0.3,1.4-0.4c0.5-0.2,1-0.3,1.6-0.5c0.4-0.1,0.9-0.3,1.3-0.5c0.5-0.2,1.1-0.4,1.6-0.6
							c0.4-0.2,0.8-0.3,1.3-0.5c0.5-0.2,1.1-0.4,1.6-0.6c0.4-0.2,0.8-0.3,1.2-0.5c0.6-0.2,1.1-0.5,1.7-0.7c0.4-0.2,0.7-0.3,1.1-0.5
							c0.6-0.3,1.1-0.5,1.7-0.8c0.3-0.2,0.7-0.3,1-0.5c0.6-0.3,1.2-0.6,1.8-0.9c0.3-0.2,0.6-0.3,0.9-0.5c0.6-0.3,1.2-0.6,1.8-0.9
							c0.3-0.1,0.5-0.3,0.8-0.4c0.6-0.3,1.3-0.7,1.9-1c0.2-0.1,0.4-0.3,0.7-0.4c0.7-0.4,1.4-0.8,2-1.2c0.1-0.1,0.3-0.2,0.4-0.3
							c0.7-0.4,1.5-0.9,2.2-1.4c0,0,0.1-0.1,0.1-0.1c10.5-6.6,20-14.8,28.1-23.7c4.5-4.9,8.7-10,12.7-15.4
							C364.2,356.8,362,359.3,359.7,361.8z"/>
					</g>
				</g>
				<g>
					<g>
						<path class="st3" d="M81.2,212.8l-42,42c-3.9,3.9-10.3,3.9-14.3,0l-14.7-14.7c-3.9-3.9-3.9-10.3,0-14.3l42-42
							c3.9-3.9,10.3-3.9,14.3,0l14.7,14.7C85.1,202.5,85.1,208.8,81.2,212.8z"/>
					</g>
					<g>
						<path class="st3" d="M249.8,47.9l-42,42c-3.9,3.9-10.3,3.9-14.3,0l-15.1-15.1c-3.9-3.9-3.9-10.3,0-14.3l42-42
							c3.9-3.9,10.3-3.9,14.3,0l15.1,15.1C253.8,37.6,253.8,43.9,249.8,47.9z"/>
					</g>
					<g>
						<path class="st4" d="M380.6,66.5c-31.7-21.5-92.5-52.8-152-28.9c-11.7,4.7-21.8,12.9-29,23.3l-49.3,70.7
							c-5.8,8.3-13.2,15.4-21.9,20.7c-18.9,11.8-55.5,35.7-87.1,63.2c-18.9,16.5-19,44.9-16.1,67.2c3.5,26.6,12.3,52,22.4,76.6
							c12.6,30.6,33.4,55.5,60.9,73.5c14.5,9.5,33.2,18.2,51.3,13.3c29.6-8,39.8-46,44.8-71.7c3.6-18.4,7.6-36.6,12.6-54.7
							c4.9-17.7,9.6-35.9,16.9-52.9c2.6-6.1,5.6-12.3,9.9-17.4c5-5.9,12.8-11.5,19.9-14.5c3.2-1.4,6.5-2.6,9.8-3.7
							c8.3-2.8,16.7-5.1,25.1-7.3c16-4.1,32.2-7.7,48.4-11c7.3-1.5,14.6-3,22-4.3c0,0,120.9-6.9,52.5-102
							C410.5,90.9,396.5,77.3,380.6,66.5z"/>
						<g>
							<g>
								<g>
									<ellipse transform="matrix(0.7071 -0.7071 0.7071 0.7071 3.8006 212.6021)" cx="258.5" cy="101.7" rx="20.4" ry="19.7"/>
								</g>
							</g>
							<g>
								<g>
									<ellipse transform="matrix(0.7071 -0.7071 0.7071 0.7071 18.924 247.4419)" cx="308.2" cy="100.9" rx="20.4" ry="19.7"/>
								</g>
							</g>
							<g>
								<g>
									<ellipse transform="matrix(0.7071 -0.7071 0.7071 0.7071 -31.5263 226.5378)" cx="257.7" cy="151.3" rx="20.4" ry="19.7"/>
								</g>
							</g>
							<g>
								<g>
									<ellipse transform="matrix(0.7071 -0.7071 0.7071 0.7071 -16.3961 261.3999)" cx="307.3" cy="150.5" rx="20.4" ry="19.7"/>
								</g>
							</g>
						</g>
						<g>
							<g>
								<path d="M139.5,249l-15.9,15.9c-3.3,3.3-8.5,3.3-11.6,0.2l-15.3-15.3c-3.2-3.2-8.3-3.1-11.6,0.2l-7.7,7.7
									c-3.3,3.3-3.3,8.5-0.2,11.6l15.3,15.3c3.2,3.2,3.1,8.3-0.2,11.6l-17.5,17.5c-3.3,3.3-3.3,8.5-0.2,11.6l9,9
									c3.2,3.2,8.3,3.1,11.6-0.2l17.5-17.5c3.3-3.3,8.5-3.3,11.6-0.2l15.3,15.3c3.2,3.2,8.3,3.1,11.6-0.2l7.7-7.7
									c3.3-3.3,3.3-8.5,0.2-11.6L143.9,297c-3.2-3.2-3.1-8.3,0.2-11.6l15.9-15.9c3.3-3.3,3.3-8.5,0.2-11.6l-9-9
									C148,245.7,142.8,245.8,139.5,249z"/>
							</g>
						</g>
					</g>
				</g>
				<g>
					<g>
						<path d="M212.6,94.1l-18,18c-4.9,4.9-12.7,4.9-17.6,0l-45.8-45.8c-4.9-4.9-4.9-12.7,0-17.6l18-18c4.9-4.9,12.7-4.9,17.6,0
							l45.8,45.8C217.4,81.4,217.4,89.3,212.6,94.1z"/>
						<path class="st2" d="M173.8,101.6l-30.1-30.1c-9.2-9.2-9.2-24.1,0-33.3l2.3-2.3c0.8-0.8,1.7-1.5,2.6-2.2
							c-2.6,1.1-5.1,2.8-7.2,4.9l-2.3,2.3c-9.2,9.2-9.2,24.1,0,33.3l30.1,30.1c8.4,8.4,21.5,9.1,30.7,2.2
							C191.2,110.3,180.8,108.6,173.8,101.6z"/>
					</g>
					<g>
						<g>
							<path d="M182.7,134.8l-18.8,18.8c-4.6,4.6-12.1,4.6-16.8,0l-42.2-42.2c-4.6-4.6-4.6-12.1,0-16.8l18.8-18.8
								c4.6-4.6,12.1-4.6,16.8,0l42.2,42.2C187.4,122.7,187.4,130.2,182.7,134.8z"/>
						</g>
						<path class="st2" d="M143.6,142.6l-27.2-27.2c-8.8-8.8-8.8-23,0-31.7l2.4-2.4c-0.9,0.7-1.7,1.4-2.5,2.1l-3.9,3.9
							c-8.8,8.8-8.8,23,0,31.7l27.2,27.2c8.8,8.8,23,8.8,31.7,0l1.5-1.5C164.1,151.3,151.6,150.6,143.6,142.6z"/>
					</g>
					<g>
						<g>
							<path class="st5" d="M136.6,178.3L136.6,178.3c-9.8,9.8-25.8,9.8-35.6,0l-23.4-23.4c-9.8-9.8-9.8-25.8,0-35.6l0,0
								c9.8-9.8,25.8-9.8,35.6,0l23.4,23.4C146.4,152.5,146.4,168.5,136.6,178.3z"/>
						</g>
						<path class="st2" d="M106.2,175.8l-23.4-23.4c-9.8-9.8-9.8-25.8,0-35.6l0,0c1.3-1.3,2.8-2.5,4.3-3.4c-3.5,1.2-6.7,3.2-9.5,5.9
							c-9.8,9.8-9.8,25.8,0,35.6l23.4,23.4c8.5,8.5,21.6,9.6,31.3,3.4C123.5,184.8,113.2,182.9,106.2,175.8z"/>
					</g>
					<g>
						<g>
							<path d="M101.7,215.4L101.7,215.4c-9.8,9.8-25.8,9.8-35.6,0L49,198.3c-9.8-9.8-9.8-25.8,0-35.6l0,0c9.8-9.8,25.8-9.8,35.6,0
								l17.1,17.1C111.6,189.7,111.6,205.6,101.7,215.4z"/>
						</g>
						<path class="st2" d="M70.2,212.8l-17.1-17.1c-9.8-9.8-9.8-25.8,0-35.6c0.8-0.8,1.6-1.4,2.4-2.1c-2.3,1.2-4.6,2.7-6.5,4.7
							c-9.8,9.8-9.8,25.8,0,35.6l17.1,17.1c9.1,9.1,23.3,9.8,33.2,2.1C89.9,222.3,78.1,220.7,70.2,212.8z"/>
					</g>
				</g>
				<g>
					<g>
						<path d="M387.7,247c-0.1-0.4-0.2-0.8-0.3-1.3c-0.3-1.3-0.4-2.7-0.5-4.1c0-0.4,0-0.8-0.1-1.3c-0.1-1.3-0.3-2.6-0.4-3.8
							c-0.3-3.4-0.7-6.8-1-10.2c-0.5-4.9-1-9.7-1.4-14.6c-0.6-5.7-1.1-11.3-1.7-17c-0.6-5.8-1.1-11.6-1.7-17.5
							c-0.5-5.3-1-10.6-1.6-16c-0.4-4.2-0.8-8.3-1.2-12.5c-0.2-2.3-0.3-4.7-0.6-7c-0.7-5.1-1.9-10-5.4-14c-0.3-0.3-0.5-0.6-0.8-0.9
							c-0.1-0.1-0.2-0.2-0.3-0.3c-0.5-0.5-1-1-1.6-1.5c-0.2-0.2-0.4-0.3-0.6-0.5c-0.3-0.2-0.5-0.4-0.8-0.6c-0.2-0.2-0.5-0.3-0.7-0.5
							c-0.3-0.2-0.5-0.3-0.8-0.5c-0.3-0.2-0.6-0.3-0.9-0.5c-0.2-0.1-0.5-0.3-0.7-0.4c-0.4-0.2-0.9-0.4-1.3-0.6
							c-0.2-0.1-0.4-0.1-0.5-0.2c-0.5-0.2-1-0.4-1.5-0.5c-0.2-0.1-0.4-0.1-0.6-0.2c-0.4-0.1-0.8-0.2-1.2-0.3c-0.2,0-0.4-0.1-0.7-0.1
							c-0.4-0.1-0.8-0.1-1.3-0.2c-0.2,0-0.4-0.1-0.6-0.1c-0.6-0.1-1.2-0.1-1.9-0.1c-22.8,0-39.3,18.6-37.1,41.3
							c0.7,6.7,1.6,13.3,2.5,19.9c0.9,6.4,2.5,13.3,1.2,19.8c-1.3,6-4.5,11.5-7.8,16.6c-5.9,9.1-10.1,18.8-11.1,29.7
							c-3.7,42.2,10.1,83.5,39.1,113.2c5.8,5.9,15.4,5.3,20.6-1.1c15.1-18.8,26.6-40.5,29.3-64.8C393.4,279,392.1,262.4,387.7,247z"
							/>
					</g>
					<path class="st2" d="M361.3,121.5c0.6,0,1.2,0,1.9,0.1c-0.1-0.1-0.3-0.1-0.4-0.2c-0.5-0.2-1-0.4-1.5-0.5
						c-0.2-0.1-0.4-0.1-0.6-0.2c-0.4-0.1-0.8-0.2-1.2-0.3c-0.2,0-0.4-0.1-0.7-0.1c-0.4-0.1-0.8-0.1-1.3-0.2c-0.2,0-0.4-0.1-0.6-0.1
						c-0.6-0.1-1.2-0.1-1.9-0.1c-22.8,0-39.3,18.6-37.1,41.3c0.7,6.7,1.6,13.3,2.5,19.9c0.9,6.4,2.5,13.3,1.2,19.8
						c-1.3,6-4.5,11.5-7.8,16.6c-5.9,9.1-10.1,18.8-11.1,29.7c-1.9,21.6,0.8,43.1,7.8,62.8c1.4,3.9,4.6,7,8.7,8.1l0.1,0
						c-8.9-21.5-12.5-45.3-10.4-69.3c1-10.9,5.2-20.6,11.1-29.7c3.3-5.1,6.5-10.6,7.8-16.6c1.4-6.5-0.3-13.4-1.2-19.8
						c-0.9-6.6-1.8-13.3-2.5-19.9C322,140.1,338.4,121.5,361.3,121.5z"/>
				</g>
			</g>
		</g>
		<g>
			<path class="st6" d="M395.3,324.8c-2.1-7.9,4.8-15.4,12.8-13.9c4.2,0.8,8,1.1,11.3,1.1c11.7,0,20.3-2.8,25.9-8.3
				c2.9-2.9,4.8-6.5,5.7-10.9c0.9-4.4,1.4-11.9,1.4-22.5V121.9c0-5.8,4.5-10.7,10.3-11.2l70.8-6.4c6.6-0.6,12.4,4.6,12.4,11.2v177.3
				c0,22.1-4.6,41.9-13.8,59.1c-7.7,14.4-19.9,25.6-36.7,33.5c-16.8,8-36.7,11.9-59.5,11.9c-3.9,0-8.6-0.2-13.9-0.6
				c-4.9-0.3-9-3.7-10.2-8.4L395.3,324.8z"/>
			<path class="st6" d="M759.1,193.9c-3.5,5.1-10.5,6.4-15.7,3c-14-9.4-28-14.1-42.1-14.1c-16.3,0-30.1,5.6-41.5,16.8
				c-13.4,12.9-20,29.2-20,49c0,19.2,6.5,35.3,19.4,48.1c11.3,11.2,24.1,16.8,38.4,16.8c1.8,0,3.8-0.1,6-0.3
				c5.9-0.4,10.5-5.4,10.5-11.3v-5.2c0-6.2-5.1-11.3-11.3-11.3h-18.3c-7.4,0-12.8-6.9-11-14l10.9-42.8c1.3-5,5.8-8.5,11-8.5h94.8
				c6.3,0,11.3,5,11.3,11.3v134.9c0,4.6-2.8,8.7-7.1,10.5c-8.4,3.4-15,5.9-19.8,7.5c-25.7,8.7-51.7,13.1-78,13.1
				c-43.5,0-79.4-14.1-107.7-42.3c-14.3-14.2-25.3-30.6-33-49.2c-7.7-18.1-11.5-36.8-11.5-56c0-27.5,7.6-53.7,22.7-78.4
				c14.9-24.2,34.5-42.5,58.8-54.8c21.1-10.8,45.9-16.2,74.3-16.2c19.9,0,37.3,2.4,52.3,7.1c12.1,3.8,25,10,38.9,18.5
				c5.5,3.4,7.1,10.7,3.4,16L759.1,193.9z"/>
			<path class="st6" d="M1057.4,390.3h-70.6c-3.9,0-7.5-2-9.6-5.3l-61.5-98c-6-9.6-21-5.4-21,6v83.2c0,5.8-4.4,10.7-10.3,11.2
				l-65.6,6.2c-6.7,0.6-12.4-4.6-12.4-11.2V118.5c0-6.2,5.1-11.3,11.3-11.3h70.6c3.9,0,7.6,2,9.6,5.3l61.5,98.8c6,9.7,21,5.4,21-5.9
				v-83.8c0-5.8,4.4-10.7,10.2-11.2l65.6-6.3c8.6-0.9,11.4,1.9,11.4,18.7l1,256.3C1068.7,385.2,1063.6,390.3,1057.4,390.3z"/>
		</g>
	</g>
</g>
</svg>
